<?xml version="1.0" encoding="UTF-8" standalone="no" ?>
<!DOCTYPE svg PUBLIC "-//W3C//DTD SVG 1.1//EN" "http://www.w3.org/Graphics/SVG/1.1/DTD/svg11.dtd">
<svg xmlns="http://www.w3.org/2000/svg" xmlns:xlink="http://www.w3.org/1999/xlink" version="1.1" width="1280" height="1024" viewBox="0 0 1280 1024" xml:space="preserve">
<desc>Created with Fabric.js 3.6.3</desc>
<defs>
</defs>
<g transform="matrix(1.9692307692307693 0 0 1.9692307692307693 640 512)" id="background-logo"  >
<rect style="stroke: none; stroke-width: 0; stroke-dasharray: none; stroke-linecap: butt; stroke-dashoffset: 0; stroke-linejoin: miter; stroke-miterlimit: 4; fill: rgb(232,232,232); fill-rule: nonzero; opacity: 1;"  paint-order="stroke"  x="-325" y="-260" rx="0" ry="0" width="650" height="520" />
</g>
<g transform="matrix(1.9692307692307693 0 0 1.9692307692307693 640.3504807692308 503.03082338461536)" id="text-logo-path"  >
<linearGradient id="SVGID_2_171470" gradientUnits="userSpaceOnUse" gradientTransform="matrix(1 0 0 1 1.3100000000000023 -66.05)"  x1="0" y1="0" x2="0" y2="98">
<stop offset="0%" style="stop-color:rgb(252,227,138);stop-opacity: 1"/>
<stop offset="100%" style="stop-color:rgb(243,129,129);stop-opacity: 1"/>
</linearGradient>
<filter id="SVGID_171469" y="-24.133370074400663%" height="148.26674014880132%" x="-21.24838749947984%" width="142.49677499895967%" >
	<feGaussianBlur in="SourceAlpha" stdDeviation="0"></feGaussianBlur>
	<feOffset dx="3" dy="3" result="oBlur" ></feOffset>
	<feFlood flood-color="rgb(0,0,0)" flood-opacity="1"/>
	<feComposite in2="oBlur" operator="in" />
	<feMerge>
		<feMergeNode></feMergeNode>
		<feMergeNode in="SourceGraphic"></feMergeNode>
	</feMerge>
</filter>
<path style="stroke: rgb(0,0,0); stroke-width: 7; stroke-dasharray: none; stroke-linecap: butt; stroke-dashoffset: 0; stroke-linejoin: miter; stroke-miterlimit: 10; fill: url(#SVGID_2_171470); fill-rule: nonzero; opacity: 1;filter: url(#SVGID_171469);"  paint-order="stroke"  transform=" translate(-121.465, 29.759999999999998)" d="M 1.34 -15.98 L 1.34 -15.98 Q 1.54 -20.17 2.47 -24.38 Q 3.4 -28.6 4.79 -32.61 Q 6.17 -36.62 7.71 -40.1 L 7.71 -40.1 Q 8.62 -42.04 9.99 -44.44 Q 11.35 -46.83 13.01 -49.18 Q 14.67 -51.53 16.45 -53.59 Q 18.23 -55.65 20.01 -57.11 L 20.01 -57.11 Q 23.49 -59.96 27.76 -60.99 L 27.76 -60.99 Q 29.58 -61.42 31.32 -61.38 L 31.32 -61.38 Q 33.7 -61.38 35.87 -60.59 L 35.87 -60.59 Q 37.49 -62.29 39.55 -62.77 L 39.55 -62.77 Q 40.66 -63.04 41.77 -63.04 L 41.77 -63.04 Q 42.71 -63.04 43.66 -62.85 L 43.66 -62.85 Q 45.76 -62.45 47.7 -61.15 Q 49.64 -59.84 51.1 -57.9 L 51.1 -57.9 Q 51.26 -57.35 51.79 -56.22 Q 52.33 -55.09 52.8 -53.71 L 52.8 -53.71 Q 54.7 -49.24 54.7 -43.7 L 54.7 -43.7 Q 54.7 -43.58 54.7 -43.51 L 54.7 -43.51 Q 54.66 -37.81 53.37 -32 Q 52.09 -26.18 49.85 -20.67 Q 47.62 -15.15 45.21 -10.92 L 45.21 -10.92 Q 43.11 -7.28 40.18 -3.72 Q 37.26 -0.16 33.62 2.18 L 33.62 2.18 Q 31.28 3.96 28.36 5.1 L 28.36 5.1 Q 26.58 5.7 24.28 6.01 L 24.28 6.01 Q 22.66 6.21 21 6.25 L 21 6.25 Q 20.33 6.25 19.7 6.21 L 19.7 6.21 Q 17.32 6.09 15.15 5.44 Q 12.97 4.79 11.27 3.64 L 11.27 3.64 Q 7.4 1.7 5.16 -1.38 Q 2.93 -4.47 2.06 -8.15 L 2.06 -8.15 Q 1.34 -11.15 1.31 -14.52 L 1.31 -14.52 Q 1.31 -15.23 1.34 -15.98 Z M 17.32 -10.13 L 17.32 -10.13 L 17.48 -9.22 Q 17.56 -8.82 17.86 -8.01 Q 18.15 -7.2 18.59 -6.35 Q 19.02 -5.5 19.64 -4.77 Q 20.25 -4.03 20.96 -3.72 L 20.96 -3.72 Q 21.75 -4.35 22.58 -4.94 Q 23.41 -5.54 24.05 -6.33 L 24.05 -6.33 Q 26.74 -9.65 28.95 -14.3 Q 31.17 -18.94 32.63 -24.13 L 32.63 -24.13 Q 34.09 -29.35 34.73 -34.65 L 34.73 -34.65 Q 35.08 -37.89 35.08 -40.82 L 35.08 -40.82 Q 35.08 -42.71 34.92 -44.53 L 34.92 -44.53 Q 34.01 -43.39 33.24 -42.34 Q 32.47 -41.29 31.76 -40.26 L 31.76 -40.26 Q 29.5 -37.1 27.15 -33.54 Q 24.8 -29.98 22.76 -26.2 Q 20.72 -22.43 19.28 -18.51 Q 17.84 -14.59 17.4 -10.6 L 17.4 -10.6 Q 17.4 -10.44 17.36 -10.36 Q 17.32 -10.28 17.32 -10.13 Z M 52.13 -5.81 L 52.13 -5.81 Q 52.09 -6.37 52.09 -6.88 L 52.09 -6.88 Q 52.13 -12.89 54.5 -19.78 L 54.5 -19.78 Q 57.11 -27.29 62.25 -35.56 L 62.25 -35.56 Q 64.51 -37.73 67.32 -38.13 L 67.32 -38.13 Q 68.11 -38.25 68.82 -38.21 L 68.82 -38.21 Q 70.72 -38.21 72.26 -37.49 L 72.26 -37.49 Q 74.4 -36.54 75.42 -34.41 L 75.42 -34.41 Q 75.86 -33.46 75.86 -32.35 L 75.86 -32.35 Q 75.86 -31.01 75.15 -29.47 L 75.15 -29.47 Q 72.38 -25.43 70.76 -20.74 Q 69.13 -16.06 67.79 -11.27 L 67.79 -11.27 Q 70.88 -13.21 73.09 -15.42 Q 75.3 -17.64 77.04 -20.11 Q 78.79 -22.58 80.25 -25.31 Q 81.71 -28.04 83.41 -30.85 L 83.41 -30.85 L 84.6 -33.14 L 87.05 -37.02 Q 87.53 -38.56 88.75 -39 Q 89.98 -39.43 91.38 -39.43 Q 92.79 -39.43 94.25 -39.39 L 94.25 -39.39 Q 94.33 -39.39 94.41 -39.39 L 94.41 -39.39 Q 95.79 -39.39 96.78 -40.1 L 96.78 -40.1 Q 97.89 -40.86 99.19 -40.86 L 99.19 -40.86 Q 99.51 -40.9 99.83 -40.82 L 99.83 -40.82 Q 101.49 -40.58 102.83 -39.71 L 102.83 -39.71 Q 104.1 -38.84 104.81 -37.57 L 104.81 -37.57 Q 105.21 -36.86 105.21 -36.19 L 105.21 -36.19 Q 105.21 -35.64 104.97 -35.08 L 104.97 -35.08 Q 103.27 -31.44 101.65 -26.74 Q 100.02 -22.03 98.48 -17.2 Q 96.94 -12.38 95.59 -7.93 Q 94.25 -3.48 93.02 -0.47 L 93.02 -0.47 Q 91.05 2.06 87.96 2.93 L 87.96 2.93 Q 85.79 3.56 83.73 3.56 L 83.73 3.56 Q 82.94 3.56 82.15 3.44 L 82.15 3.44 Q 79.42 3.08 77.8 1.58 L 77.8 1.58 Q 76.77 0.63 76.77 -0.63 L 76.77 -0.63 Q 76.77 -1.34 77.08 -2.18 L 77.08 -2.18 Q 74.83 -0.32 72.54 1.15 L 72.54 1.15 Q 69.93 2.77 66.52 3.24 L 66.52 3.24 Q 65.22 3.44 63.95 3.44 L 63.95 3.44 Q 61.9 3.4 59.92 2.93 L 59.92 2.93 Q 56.76 2.14 54.52 -0.02 Q 52.29 -2.18 52.13 -5.81 Z M 101.09 -11.19 L 101.09 -11.19 Q 101.09 -15.66 103.15 -20.88 L 103.15 -20.88 Q 104.93 -25.35 107.82 -29.11 Q 110.7 -32.87 114.58 -35.52 L 114.58 -35.52 Q 118.45 -38.13 123.36 -39.31 L 123.36 -39.31 Q 126.4 -40.03 129.81 -40.06 L 129.81 -40.06 Q 131.86 -40.06 134.04 -39.79 L 134.04 -39.79 Q 137.2 -39.39 138.31 -37.57 L 138.31 -37.57 Q 139.22 -36.07 139.18 -34.37 L 139.18 -34.37 Q 139.18 -34.01 139.14 -33.66 L 139.14 -33.66 Q 138.9 -31.6 137.64 -29.94 Q 136.37 -28.28 134.83 -28.2 L 134.83 -28.2 Q 134.27 -26.5 133.05 -25.85 Q 131.82 -25.19 130.38 -24.96 Q 128.94 -24.72 127.35 -24.42 Q 125.77 -24.13 124.47 -23.1 L 124.47 -23.1 Q 123 -21.87 122.07 -20.78 Q 121.14 -19.7 120.57 -18.67 Q 120 -17.64 119.6 -16.55 Q 119.21 -15.46 118.89 -14.24 L 118.89 -14.24 Q 118.81 -13.45 119.25 -12.56 Q 119.68 -11.67 120.61 -10.94 Q 121.54 -10.2 122.81 -9.77 L 122.81 -9.77 Q 123.87 -9.41 125.14 -9.41 L 125.14 -9.41 Q 125.38 -9.41 125.61 -9.41 L 125.61 -9.41 Q 126.4 -9.49 127.12 -9.49 L 127.12 -9.49 Q 128.46 -9.49 129.53 -9.18 L 129.53 -9.18 Q 131.11 -8.7 131.92 -7.87 Q 132.73 -7.04 132.65 -5.91 Q 132.57 -4.79 131.59 -3.64 L 131.59 -3.64 Q 130.2 -1.46 128.07 0.16 Q 125.93 1.78 123.34 2.75 Q 120.75 3.72 117.94 4.11 L 117.94 4.11 Q 115.96 4.39 114.1 4.35 L 114.1 4.35 Q 113.31 4.35 112.56 4.31 L 112.56 4.31 Q 109.48 4.07 106.81 2.12 Q 104.14 0.16 102.63 -3.16 L 102.63 -3.16 Q 101.09 -6.6 101.09 -11.19 Z M 135.94 3.8 Q 135.3 2.02 135.3 1.17 Q 135.3 0.32 135.76 -0.81 Q 136.21 -1.94 136.98 -4.13 Q 137.76 -6.33 138.55 -10.76 L 138.55 -10.76 Q 138.55 -11.07 138.7 -11.59 L 138.7 -11.59 Q 137.56 -12.3 136.89 -13.57 L 136.89 -13.57 Q 136.21 -14.87 135.98 -16.22 L 135.98 -16.22 Q 135.9 -16.73 135.9 -17.2 L 135.9 -17.2 Q 135.9 -18.07 136.13 -19.02 L 136.13 -19.02 Q 136.53 -20.49 137.48 -21.71 L 137.48 -21.71 Q 138.39 -22.03 139.36 -22.39 Q 140.33 -22.74 141.24 -23.18 L 141.24 -23.18 Q 141.55 -25.11 142.11 -27.17 Q 142.66 -29.23 143.31 -31.3 Q 143.96 -33.38 144.58 -35.44 Q 145.19 -37.49 145.67 -39.43 L 145.67 -39.43 Q 147.05 -45.6 149.11 -51.55 Q 151.16 -57.51 152.78 -63.6 L 152.78 -63.6 Q 154.56 -65.77 157.1 -66.01 L 157.1 -66.01 Q 157.57 -66.05 158.04 -66.05 L 158.04 -66.05 Q 160.02 -66.05 161.92 -65.26 L 161.92 -65.26 Q 164.29 -64.23 165.96 -62.17 Q 167.62 -60.12 167.77 -57.59 L 167.77 -57.59 L 167.06 -55.25 Q 167.97 -54.18 168.64 -53.53 Q 169.32 -52.88 169.4 -51.53 L 169.4 -51.53 Q 169.48 -51.38 169.48 -51.18 L 169.48 -51.18 Q 169.51 -50.31 168.49 -48.29 L 168.49 -48.29 Q 167.22 -45.76 165.36 -42.52 Q 163.5 -39.27 161.43 -35.75 Q 159.35 -32.23 158.08 -29.47 L 158.08 -29.47 Q 159.07 -29.7 160.02 -29.88 Q 160.97 -30.06 161.96 -30.3 L 161.96 -30.3 Q 162.95 -30.53 164.43 -30.91 Q 165.92 -31.28 167.54 -31.56 Q 169.16 -31.84 170.66 -31.88 L 170.66 -31.88 Q 170.78 -31.88 170.94 -31.88 L 170.94 -31.88 Q 172.28 -31.88 173.23 -31.52 L 173.23 -31.52 Q 174.93 -30.89 176.14 -29.86 Q 177.35 -28.83 177.42 -26.89 L 177.42 -26.89 Q 176.95 -25.75 175.53 -24.42 Q 174.1 -23.1 172.36 -21.83 Q 170.62 -20.57 168.92 -19.48 Q 167.22 -18.39 166.15 -17.64 L 166.15 -17.64 L 159.11 -12.62 Q 158.88 -12.22 158.68 -11.83 Q 158.48 -11.43 158.32 -10.92 L 158.32 -10.92 L 158.32 -10.84 Q 158.4 -10.6 158.64 -10.52 L 158.64 -10.52 Q 159.71 -9.97 160.99 -9.47 Q 162.28 -8.98 163.66 -8.38 Q 165.05 -7.79 166.49 -6.86 Q 167.93 -5.93 169.4 -4.47 L 169.4 -4.47 Q 170.23 -3.56 170.46 -1.82 L 170.46 -1.82 Q 170.54 -1.38 170.5 -0.95 L 170.5 -0.95 Q 170.46 0.32 169.91 1.38 L 169.91 1.38 Q 169.12 2.85 167.22 3.48 L 167.22 3.48 Q 166.55 3.72 165.68 3.72 L 165.68 3.72 Q 164.06 3.72 161.8 2.93 L 161.8 2.93 Q 159.31 1.78 156.19 -0.85 Q 153.06 -3.48 149.74 -7.2 L 149.74 -7.2 Q 148.95 -4.35 148.16 -1.64 Q 147.37 1.07 146.5 3.88 L 146.5 3.88 Q 145.86 5.3 144.2 5.93 L 144.2 5.93 Q 142.66 6.53 141 6.53 L 141 6.53 Q 140.88 6.53 140.8 6.53 L 140.8 6.53 Q 139.02 6.49 137.62 5.75 Q 136.21 5.02 135.94 3.8 L 135.94 3.8 Z M 174.34 1.27 L 174.34 1.27 Q 174.14 0.91 174.14 0.24 L 174.14 0.24 Q 174.14 -0.51 174.38 -1.7 L 174.38 -1.7 Q 175.68 -6.17 177.23 -12.52 Q 178.77 -18.87 181.16 -26.48 Q 183.56 -34.09 187 -42.56 Q 190.44 -51.02 195.46 -59.76 L 195.46 -59.76 Q 196.01 -60.47 196.75 -61.66 Q 197.48 -62.85 198.6 -63.85 Q 199.73 -64.86 201.43 -65.34 L 201.43 -65.34 Q 202.1 -65.54 202.86 -65.54 L 202.86 -65.54 Q 204.08 -65.54 205.58 -65.06 L 205.58 -65.06 Q 205.51 -63.99 206.08 -63.14 Q 206.65 -62.29 207.36 -61.44 Q 208.08 -60.59 208.61 -59.66 Q 209.14 -58.73 209.07 -57.59 L 209.07 -57.59 Q 206.65 -51.85 204.54 -46.22 Q 202.42 -40.58 200.52 -34.98 Q 198.62 -29.39 196.92 -23.73 Q 195.22 -18.07 193.6 -12.14 L 193.6 -12.14 Q 192.81 -9.22 192.32 -7.04 Q 191.82 -4.86 191.29 -3.16 Q 190.75 -1.46 190.12 -0.18 Q 189.49 1.11 188.26 2.18 L 188.26 2.18 Q 186.88 3.4 185.1 4.43 L 185.1 4.43 Q 183.32 5.38 181.74 5.77 L 181.74 5.77 Q 180.98 5.97 180.31 5.97 L 180.31 5.97 Q 179.6 6.01 179.01 5.77 L 179.01 5.77 Q 177.86 5.38 177.78 3.64 L 177.78 3.64 Q 177.54 2.85 176.77 2.73 Q 176 2.61 175.37 2.33 Q 174.74 2.06 174.34 1.27 Z M 199.18 -6.49 L 199.18 -6.49 Q 199.14 -7.36 199.14 -8.27 L 199.14 -8.27 Q 199.14 -9.89 199.3 -11.67 L 199.3 -11.67 Q 199.57 -14.44 200.34 -17.34 Q 201.12 -20.25 202.5 -22.74 L 202.5 -22.74 Q 203.81 -25.23 206.16 -27.76 Q 208.51 -30.3 211.3 -32.49 Q 214.09 -34.69 217.15 -36.39 Q 220.22 -38.09 223.15 -38.8 L 223.15 -38.8 Q 224.53 -39.19 226.03 -39.35 L 226.03 -39.35 Q 226.55 -39.39 227.02 -39.39 L 227.02 -39.39 Q 228.01 -39.39 228.92 -39.19 L 228.92 -39.19 Q 229.71 -39.04 230.98 -38.8 Q 232.24 -38.56 233.41 -38.07 Q 234.58 -37.57 235.43 -36.76 Q 236.28 -35.95 236.28 -34.77 L 236.28 -34.77 Q 236.36 -34.77 236.43 -34.73 Q 236.51 -34.69 236.59 -34.69 L 236.59 -34.69 Q 236.75 -34.69 236.75 -34.57 L 236.75 -34.57 Q 237.98 -35.04 238.83 -34.61 Q 239.68 -34.17 240.25 -33.32 Q 240.82 -32.47 241.14 -31.3 Q 241.46 -30.14 241.62 -29.15 L 241.62 -29.15 Q 241.62 -28.71 241.62 -28.24 L 241.62 -28.24 Q 241.62 -26.06 241.34 -23.1 L 241.34 -23.1 Q 240.98 -19.46 240.45 -15.52 Q 239.92 -11.59 239.44 -7.89 Q 238.97 -4.19 238.77 -1.78 L 238.77 -1.78 Q 238.77 -1.66 238.77 -1.54 L 238.77 -1.54 Q 238.81 -0.16 237.86 0.71 L 237.86 0.71 Q 236.83 1.66 235.33 2.14 L 235.33 2.14 Q 234.02 2.53 232.52 2.57 L 232.52 2.57 Q 232.32 2.53 232.08 2.53 L 232.08 2.53 Q 230.34 2.45 228.94 2 Q 227.54 1.54 226.72 0.69 Q 225.91 -0.16 226.23 -1.46 L 226.23 -1.46 Q 225.6 -0.24 224.95 0.28 Q 224.29 0.79 222.67 1.62 L 222.67 1.62 Q 220.46 2.69 216.98 3.28 L 216.98 3.28 Q 214.6 3.68 212.23 3.68 L 212.23 3.68 Q 211.12 3.68 210.01 3.6 L 210.01 3.6 Q 206.53 3.32 203.67 1.9 Q 200.8 0.47 199.81 -2.49 L 199.81 -2.49 Q 199.34 -4.03 199.18 -6.49 Z M 211.44 -9.69 L 211.44 -9.69 Q 211.44 -8.23 213.69 -7.36 L 213.69 -7.36 Q 214.96 -7 215.95 -7.04 L 215.95 -7.04 Q 216.58 -7.04 217.05 -7.16 L 217.05 -7.16 Q 218.32 -7.51 219.07 -8.54 Q 219.82 -9.57 220.4 -11.01 Q 220.97 -12.46 221.76 -14 L 221.76 -14 Q 221.52 -13.61 221.29 -13.25 Q 221.05 -12.89 221.21 -13.13 L 221.21 -13.13 Q 221.68 -14.12 221.8 -14.55 Q 221.92 -14.99 222.06 -15.46 Q 222.2 -15.94 222.39 -16.89 Q 222.59 -17.84 223.22 -19.85 L 223.22 -19.85 Q 220.22 -18.63 217.51 -16.85 Q 214.8 -15.07 213.18 -13.25 L 213.18 -13.25 Q 211.44 -11.27 211.44 -9.69 Z" stroke-linecap="round" />
</g>
</svg>